# xmcd CD database file
#
# Track frame offsets:
#	150
#	15445
#	27245
#	38457
#	46385
#	57060
#	73265
#	88412
#	98817
#	112827
#	129585
#	143852
#	153070
#	162452
#	171252
#	181250
#	192430
#	209182
#	220545
#	227542
#	236432
#	246682
#	256747
#
# Disc length: 3541 seconds
#
# Revision: 0
# Processed by: cddbd v1.5.1PL2 Copyright (c) Steve Scherf et al.
# Submitted via: CDex 1.51
#
DISCID=3d0dd317
DTITLE=Varios - Lo mejor del country
DYEAR=2000
DGENRE=Country
TTITLE0=Rocky top
TTITLE1=Cotton eyed Joe
TTITLE2=Country is the closest thing to heaven
TTITLE3=Thank god I'm a country gal
TTITLE4=Louisiana gal
TTITLE5=Orange blossom special
TTITLE6=San Antonio rose
TTITLE7=Cajun striper
TTITLE8=Texas (When I die)
TTITLE9=Fade love
TTITLE10=Concrete cowboys
TTITLE11=Dueling banjos
TTITLE12=Worried man
TTITLE13=Brassy bluegrass
TTITLE14=Home sweet home
TTITLE15=Fireball
TTITLE16=Sally Goddin
TTITLE17=Dueling banjos (Part 1)
TTITLE18=Red dress
TTITLE19=Black mountain rag
TTITLE20=Old Joe Clark
TTITLE21=Rubi
TTITLE22=Dueling banjos (Part 2)
EXTD=YEAR: 2000
EXTT0=
EXTT1=
EXTT2=
EXTT3=
EXTT4=
EXTT5=
EXTT6=
EXTT7=
EXTT8=
EXTT9=
EXTT10=
EXTT11=
EXTT12=
EXTT13=
EXTT14=
EXTT15=
EXTT16=
EXTT17=
EXTT18=
EXTT19=
EXTT20=
EXTT21=
EXTT22=
PLAYORDER=
